<?xml version="1.0" encoding="iso-8859-1"?>
<!-- Generator: Adobe Illustrator 16.0.0, SVG Export Plug-In . SVG Version: 6.00 Build 0)  -->
<!DOCTYPE svg PUBLIC "-//W3C//DTD SVG 1.1//EN" "http://www.w3.org/Graphics/SVG/1.1/DTD/svg11.dtd">
<svg xmlns="http://www.w3.org/2000/svg" xmlns:xlink="http://www.w3.org/1999/xlink" version="1.1" id="Capa_1" x="0px" y="0px" width="512px" height="512px" viewBox="0 0 431.365 431.365" style="enable-background:new 0 0 431.365 431.365;" xml:space="preserve">
<g>
	<g>
		<path d="M368.194,63.172C327.456,22.435,273.294,0,215.683,0c-33.376,0-65.588,7.545-94.709,21.801l9.006,17.961    c72.963-35.467,163.564-22.956,224.072,37.553c76.295,76.296,76.295,200.438,0,276.736    c-76.297,76.297-200.442,76.297-276.739,0.002c-60.507-60.51-73.018-151.106-37.55-224.071l-17.961-9.007    c-14.256,29.121-21.8,61.332-21.801,94.708c0,57.61,22.435,111.773,63.171,152.51c40.737,40.738,94.899,63.172,152.511,63.172    c57.611,0,111.773-22.436,152.511-63.174c40.736-40.735,63.17-94.897,63.17-152.508    C431.364,158.072,408.931,103.91,368.194,63.172z" fill="#FFFFFF"/>
		<path d="M65.665,142.97c-30.105,62.104-19.392,139.02,32.16,190.571c65.091,65.092,170.625,65.092,235.717,0    c65.09-65.091,65.09-170.625,0-235.717C281.989,46.273,205.074,35.56,142.97,65.665l77.757,155.063L65.665,142.97z" fill="#FFFFFF"/>
		<path d="M93.122,15.819C76.81,23.725,61.517,34.438,47.977,47.978c-13.54,13.539-24.253,28.833-32.159,45.145l155.063,77.758    L93.122,15.819z" fill="#FFFFFF"/>
	</g>
</g>
<g>
</g>
<g>
</g>
<g>
</g>
<g>
</g>
<g>
</g>
<g>
</g>
<g>
</g>
<g>
</g>
<g>
</g>
<g>
</g>
<g>
</g>
<g>
</g>
<g>
</g>
<g>
</g>
<g>
</g>
</svg>
